# xmcd
#
# Track frame offsets: 
#        150
#        11519
#        27443
#        42091
#        57546
#        74172
#        88692
#        105460
#        119887
#        136625
#        155237
#
# Disc length: 2294 seconds
#
# Revision: 5
# Processed by: cddbd v1.5.2PL0 Copyright (c) Steve Scherf et al.
# Submitted via: ExactAudioCopyFreeDBPlugin 1.0
#
DISCID=9d08f40b
DTITLE=Little Big Town - Tornado
DYEAR=2012
DGENRE=Country
TTITLE0=Pavement Ends
TTITLE1=Pontoon
TTITLE2=Sober
TTITLE3=Front Porch Thing
TTITLE4=Your Side Of The Bed
TTITLE5=Leavin' In Your Eyes
TTITLE6=Tornado
TTITLE7=On Fire Tonight
TTITLE8=Can't Go Back
TTITLE9=Self Made
TTITLE10=Night Owl
EXTD=2012 YEAR: 2012
EXTT0=
EXTT1=
EXTT2=
EXTT3=
EXTT4=
EXTT5=
EXTT6=
EXTT7=
EXTT8=
EXTT9=
EXTT10=
PLAYORDER=
